<svg xmlns="http://www.w3.org/2000/svg" width="36" height="36" viewBox="0 0 36 36">
  <circle cx="18" cy="18" r="18" fill="#1da1f2"/>
  <path d="M27 13.1c-.6.3-1.2.5-1.8.6.6-.4 1.1-1 1.3-1.6-.6.4-1.3.7-2 .8-.6-.7-1.5-1.1-2.4-1.1-1.8 0-3.2 1.5-3.2 3.2 0 .3 0 .5.1.8-2.7-.1-5-1.4-6.6-3.3-.3.5-.5 1-.5 1.6 0 1.1.6 2.1 1.5 2.7-.5 0-1-.2-1.4-.4v.1c0 1.6 1.1 2.9 2.6 3.2-.3.1-.6.2-.9.2-.2 0-.4 0-.6-.1.4 1.2 1.5 2.1 2.8 2.1-1 .8-2.2 1.3-3.5 1.3-.2 0-.4 0-.6-.1 1.2.8 2.6 1.3 4.1 1.3 4.9 0 7.6-4.1 7.6-7.6v-.4c.5-.3 1-.8 1.3-1.3z" fill="#fff"/>
</svg>
